<?xml version="1.0" encoding="utf-8"?>
<!-- Generator: Adobe Illustrator 25.0.1, SVG Export Plug-In . SVG Version: 6.00 Build 0)  -->
<svg version="1.1" id="Layer_1" xmlns="http://www.w3.org/2000/svg" xmlns:xlink="http://www.w3.org/1999/xlink" x="0px" y="0px"
	 viewBox="0 0 147.4 121.89" style="enable-background:new 0 0 147.4 121.89;" xml:space="preserve">
<style type="text/css">
	.st0{fill:#CE4FE6;}
	.st1{fill:#FF2F31;}
	.st2{fill:#EBFFFE;}
	.st3{fill:#A142C4;}
</style>
<g>
	<rect x="42.1" y="53.98" class="st0" width="13.28" height="13.28"/>
	<rect x="54.37" y="53.98" class="st0" width="13.28" height="13.28"/>
	<rect x="78.93" y="53.98" class="st0" width="13.28" height="13.28"/>
	<rect x="91.2" y="53.98" class="st0" width="13.28" height="13.28"/>
	<rect x="17.54" y="41.7" class="st0" width="13.28" height="13.28"/>
	<rect x="29.82" y="41.7" class="st0" width="13.28" height="13.28"/>
	<rect x="42.1" y="41.7" class="st0" width="13.28" height="13.28"/>
	<rect x="91.2" y="41.7" class="st0" width="13.28" height="13.28"/>
	<rect x="103.48" y="41.7" class="st0" width="13.28" height="13.28"/>
	<rect x="115.76" y="41.7" class="st0" width="13.28" height="13.28"/>
	<rect x="5.27" y="29.43" class="st0" width="13.28" height="13.28"/>
	<rect x="29.82" y="29.43" class="st1" width="13.28" height="13.28"/>
	<rect x="103.48" y="29.43" class="st1" width="13.28" height="13.28"/>
	<rect x="128.03" y="29.43" class="st0" width="13.28" height="13.28"/>
	<rect x="17.54" y="17.15" class="st0" width="13.28" height="13.28"/>
	<rect x="29.82" y="17.15" class="st0" width="13.28" height="13.28"/>
	<rect x="42.1" y="17.15" class="st0" width="13.28" height="13.28"/>
	<rect x="66.65" y="53.98" class="st2" width="13.28" height="13.28"/>
	<rect x="54.37" y="41.7" class="st2" width="13.28" height="13.28"/>
	<rect x="78.93" y="41.7" class="st2" width="13.28" height="13.28"/>
	<rect x="17.54" y="29.43" class="st2" width="13.28" height="13.28"/>
	<rect x="42.1" y="29.43" class="st2" width="13.28" height="13.28"/>
	<rect x="91.2" y="29.43" class="st2" width="13.28" height="13.28"/>
	<rect x="115.76" y="29.43" class="st2" width="13.28" height="13.28"/>
	<rect x="54.37" y="17.15" class="st2" width="13.28" height="13.28"/>
	<rect x="78.93" y="17.15" class="st2" width="13.28" height="13.28"/>
	<rect x="91.2" y="17.15" class="st0" width="13.28" height="13.28"/>
	<rect x="103.48" y="17.15" class="st0" width="13.28" height="13.28"/>
	<rect x="115.76" y="17.15" class="st0" width="13.28" height="13.28"/>
	<rect x="54.37" y="4.87" class="st0" width="13.28" height="13.28"/>
	<rect x="66.65" y="4.87" class="st0" width="13.28" height="13.28"/>
	<rect x="78.93" y="4.87" class="st0" width="13.28" height="13.28"/>
	<rect x="42.1" y="66.26" class="st0" width="13.28" height="13.28"/>
	<rect x="54.37" y="66.26" class="st0" width="13.28" height="13.28"/>
	<rect x="66.65" y="66.26" class="st0" width="13.28" height="13.28"/>
	<rect x="78.93" y="66.26" class="st0" width="13.28" height="13.28"/>
	<rect x="91.2" y="66.26" class="st0" width="13.28" height="13.28"/>
	<rect x="42.1" y="78.53" class="st0" width="13.28" height="13.28"/>
	<rect x="91.2" y="78.53" class="st0" width="13.28" height="13.28"/>
	<rect x="42.1" y="90.81" class="st0" width="13.28" height="13.28"/>
	<rect x="91.2" y="90.81" class="st0" width="13.28" height="13.28"/>
	<rect x="29.82" y="53.98" class="st3" width="13.28" height="13.28"/>
	<rect x="103.48" y="53.98" class="st3" width="13.28" height="13.28"/>
	<rect x="29.82" y="66.26" class="st3" width="13.28" height="13.28"/>
	<rect x="103.48" y="66.26" class="st3" width="13.28" height="13.28"/>
	<rect x="17.54" y="78.53" class="st3" width="13.28" height="13.28"/>
	<rect x="115.76" y="78.53" class="st3" width="13.28" height="13.28"/>
	<rect x="5.27" y="90.81" class="st3" width="13.28" height="13.28"/>
	<rect x="128.03" y="90.81" class="st3" width="13.28" height="13.28"/>
	<rect x="29.82" y="103.09" class="st0" width="13.28" height="13.28"/>
	<rect x="42.1" y="103.09" class="st0" width="13.28" height="13.28"/>
	<rect x="91.2" y="103.09" class="st0" width="13.28" height="13.28"/>
	<rect x="103.48" y="103.09" class="st0" width="13.28" height="13.28"/>
</g>
</svg>
