<svg id="Layer_1" data-name="Layer 1" xmlns="http://www.w3.org/2000/svg" viewBox="0 0 136.04 100.21"><defs><style>.cls-1{fill:#2bf3f2;}.cls-2{fill:#edffff;}.cls-3{fill:#28d4d1;}.cls-4{fill:#fd332e;}.cls-5{fill:#fd312f;}</style></defs><rect class="cls-1" x="12.28" y="37.83" width="13.28" height="13.28"/><rect class="cls-1" x="61.38" y="37.83" width="13.28" height="13.28"/><rect class="cls-1" x="110.49" y="37.83" width="13.28" height="13.28"/><rect class="cls-1" x="12.28" y="25.55" width="13.28" height="13.28"/><rect class="cls-1" x="24.55" y="25.55" width="13.28" height="13.28"/><rect class="cls-1" x="36.83" y="25.55" width="13.28" height="13.28"/><rect class="cls-1" x="49.11" y="25.55" width="13.28" height="13.28"/><rect class="cls-1" x="61.38" y="25.55" width="13.28" height="13.28"/><rect class="cls-1" x="73.66" y="25.55" width="13.28" height="13.28"/><rect class="cls-1" x="85.94" y="25.55" width="13.28" height="13.28"/><rect class="cls-1" x="98.21" y="25.55" width="13.28" height="13.28"/><rect class="cls-1" x="110.49" y="25.55" width="13.28" height="13.28"/><rect class="cls-1" x="24.55" y="13.28" width="13.28" height="13.28"/><rect class="cls-1" x="36.83" y="13.28" width="13.28" height="13.28"/><rect class="cls-1" x="85.94" y="13.28" width="13.28" height="13.28"/><rect class="cls-1" x="98.21" y="13.28" width="13.28" height="13.28"/><rect class="cls-1" x="24.55" y="50.11" width="13.28" height="13.28"/><rect class="cls-1" x="49.11" y="50.11" width="13.28" height="13.28"/><rect class="cls-1" x="61.38" y="50.11" width="13.28" height="13.28"/><rect class="cls-1" x="73.66" y="50.11" width="13.28" height="13.28"/><rect class="cls-2" x="24.55" y="37.83" width="13.28" height="13.28"/><rect class="cls-2" x="49.11" y="37.83" width="13.28" height="13.28"/><rect class="cls-2" x="73.66" y="37.83" width="13.28" height="13.28"/><rect class="cls-2" x="98.21" y="37.83" width="13.28" height="13.28"/><rect class="cls-2" x="36.83" y="50.11" width="13.28" height="13.28"/><rect class="cls-2" x="85.94" y="50.11" width="13.28" height="13.28"/><rect class="cls-1" x="98.21" y="50.11" width="13.28" height="13.28"/><rect class="cls-1" x="12.28" y="74.66" width="13.28" height="13.28"/><rect class="cls-1" x="36.83" y="74.66" width="13.28" height="13.28"/><rect class="cls-1" x="61.38" y="74.66" width="13.28" height="13.28"/><rect class="cls-1" x="85.94" y="74.66" width="13.28" height="13.28"/><rect class="cls-1" x="110.49" y="74.66" width="13.28" height="13.28"/><rect class="cls-3" x="12.28" y="50.11" width="13.28" height="13.28"/><rect class="cls-3" x="110.49" y="50.11" width="13.28" height="13.28"/><rect class="cls-3" x="24.55" y="62.38" width="13.28" height="13.28"/><rect class="cls-3" x="36.83" y="62.38" width="13.28" height="13.28"/><rect class="cls-3" x="49.11" y="62.38" width="13.28" height="13.28"/><rect class="cls-3" x="61.38" y="62.38" width="13.28" height="13.28"/><rect class="cls-3" x="73.66" y="62.38" width="13.28" height="13.28"/><rect class="cls-3" x="85.94" y="62.38" width="13.28" height="13.28"/><rect class="cls-3" x="98.21" y="62.38" width="13.28" height="13.28"/><rect class="cls-3" x="12.28" y="86.94" width="13.28" height="13.28"/><rect class="cls-3" x="110.49" y="86.94" width="13.28" height="13.28"/><rect class="cls-4" y="37.83" width="13.28" height="13.28"/><rect class="cls-4" x="36.83" y="37.83" width="13.28" height="13.28"/><rect class="cls-4" x="85.94" y="37.83" width="13.28" height="13.28"/><rect class="cls-4" x="122.76" y="37.83" width="13.28" height="13.28"/><rect class="cls-5" x="49.11" y="13.28" width="13.28" height="13.28"/><rect class="cls-5" x="61.38" y="13.28" width="13.28" height="13.28"/><rect class="cls-5" x="73.66" y="13.28" width="13.28" height="13.28"/><rect class="cls-5" x="36.83" width="13.28" height="13.28"/><rect class="cls-5" x="85.94" width="13.28" height="13.28"/><rect class="cls-4" y="86.94" width="13.28" height="13.28"/><rect class="cls-4" x="36.83" y="86.94" width="13.28" height="13.28"/><rect class="cls-4" x="61.38" y="86.94" width="13.28" height="13.28"/><rect class="cls-4" x="85.94" y="86.94" width="13.28" height="13.28"/><rect class="cls-4" x="122.76" y="86.94" width="13.28" height="13.28"/></svg>