<?xml version="1.0" encoding="utf-8"?>
<!-- Generator: Adobe Illustrator 25.0.1, SVG Export Plug-In . SVG Version: 6.00 Build 0)  -->
<svg version="1.1" id="Layer_1" xmlns="http://www.w3.org/2000/svg" xmlns:xlink="http://www.w3.org/1999/xlink" x="0px" y="0px"
	 viewBox="0 0 147.4 121.89" style="enable-background:new 0 0 147.4 121.89;" xml:space="preserve">
<style type="text/css">
	.st0{fill:#FF3231;}
	.st1{fill:#E6FF27;}
	.st2{fill:#BB2E2D;}
</style>
<g>
	<rect x="29.82" y="47.84" class="st0" width="13.28" height="13.28"/>
	<rect x="42.1" y="47.84" class="st0" width="13.28" height="13.28"/>
	<rect x="54.37" y="47.84" class="st0" width="13.28" height="13.28"/>
	<rect x="66.65" y="47.84" class="st0" width="13.28" height="13.28"/>
	<rect x="78.93" y="47.84" class="st0" width="13.28" height="13.28"/>
	<rect x="91.2" y="47.84" class="st0" width="13.28" height="13.28"/>
	<rect x="103.48" y="47.84" class="st0" width="13.28" height="13.28"/>
	<rect x="54.37" y="35.57" class="st0" width="13.28" height="13.28"/>
	<rect x="66.65" y="35.57" class="st0" width="13.28" height="13.28"/>
	<rect x="78.93" y="35.57" class="st0" width="13.28" height="13.28"/>
	<rect x="66.65" y="23.29" class="st0" width="13.28" height="13.28"/>
	<rect x="42.1" y="35.57" class="st1" width="13.28" height="13.28"/>
	<rect x="91.2" y="35.57" class="st1" width="13.28" height="13.28"/>
	<rect x="54.37" y="23.29" class="st1" width="13.28" height="13.28"/>
	<rect x="78.93" y="23.29" class="st1" width="13.28" height="13.28"/>
	<rect x="66.65" y="11.01" class="st1" width="13.28" height="13.28"/>
	<rect x="17.54" y="60.12" class="st0" width="13.28" height="13.28"/>
	<rect x="42.1" y="60.12" class="st0" width="13.28" height="13.28"/>
	<rect x="54.37" y="60.12" class="st0" width="13.28" height="13.28"/>
	<rect x="66.65" y="60.12" class="st0" width="13.28" height="13.28"/>
	<rect x="78.93" y="60.12" class="st0" width="13.28" height="13.28"/>
	<rect x="91.2" y="60.12" class="st0" width="13.28" height="13.28"/>
	<rect x="115.76" y="60.12" class="st0" width="13.28" height="13.28"/>
	<rect x="42.1" y="72.39" class="st0" width="13.28" height="13.28"/>
	<rect x="54.37" y="72.39" class="st0" width="13.28" height="13.28"/>
	<rect x="78.93" y="72.39" class="st0" width="13.28" height="13.28"/>
	<rect x="91.2" y="72.39" class="st0" width="13.28" height="13.28"/>
	<rect x="17.54" y="72.39" class="st2" width="13.28" height="13.28"/>
	<rect x="115.76" y="72.39" class="st2" width="13.28" height="13.28"/>
	<rect x="29.82" y="84.67" class="st2" width="13.28" height="13.28"/>
	<rect x="42.1" y="84.67" class="st2" width="13.28" height="13.28"/>
	<rect x="54.37" y="84.67" class="st2" width="13.28" height="13.28"/>
	<rect x="66.65" y="84.67" class="st2" width="13.28" height="13.28"/>
	<rect x="78.93" y="84.67" class="st2" width="13.28" height="13.28"/>
	<rect x="91.2" y="84.67" class="st2" width="13.28" height="13.28"/>
	<rect x="103.48" y="84.67" class="st2" width="13.28" height="13.28"/>
	<rect x="42.1" y="96.95" class="st2" width="13.28" height="13.28"/>
	<rect x="66.65" y="96.95" class="st2" width="13.28" height="13.28"/>
	<rect x="91.2" y="96.95" class="st2" width="13.28" height="13.28"/>
</g>
</svg>
