<svg id="Layer_1" data-name="Layer 1" xmlns="http://www.w3.org/2000/svg" viewBox="0 0 147.23 137.71"><defs><style>.cls-1{fill:#ff3231;}.cls-2{fill:#a142c4;}.cls-3{fill:#bc2c2d;}.cls-4{fill:#edfd2c;}.cls-5{fill:#ce4fe6;}.cls-6{fill:#2bf4f2;}</style></defs><rect class="cls-1" x="24.55" y="47.36" width="12.28" height="12.28"/><rect class="cls-1" x="12.28" y="58.77" width="12.28" height="12.28"/><rect class="cls-2" x="24.55" y="58.77" width="12.28" height="12.28"/><rect class="cls-1" x="61.38" y="11.4" width="12.28" height="12.28"/><rect class="cls-1" x="49.11" y="23.68" width="12.28" height="12.28"/><rect class="cls-2" x="61.38" y="23.68" width="12.28" height="12.28"/><rect class="cls-1" x="36.83" y="35.09" width="12.28" height="12.28"/><rect class="cls-2" x="49.11" y="35.09" width="12.28" height="12.28"/><rect class="cls-1" x="61.38" y="35.09" width="12.28" height="12.28"/><rect class="cls-1" x="49.11" y="47.36" width="12.28" height="12.28"/><rect class="cls-3" x="61.38" y="47.36" width="12.28" height="12.28"/><rect class="cls-1" x="36.83" y="58.77" width="12.28" height="12.28"/><rect class="cls-3" x="49.11" y="58.77" width="12.28" height="12.28"/><rect class="cls-1" x="61.38" y="58.77" width="12.28" height="12.28"/><rect class="cls-1" x="12.28" y="66.67" width="12.28" height="12.28"/><rect class="cls-1" x="24.55" y="66.67" width="12.28" height="12.28"/><rect class="cls-2" x="36.83" y="66.67" width="12.28" height="12.28"/><rect class="cls-1" x="49.11" y="66.67" width="12.28" height="12.28"/><rect class="cls-3" x="61.38" y="66.67" width="12.28" height="12.28"/><rect class="cls-4" x="36.83" y="78.07" width="12.28" height="12.28"/><rect class="cls-2" x="49.11" y="78.07" width="12.28" height="12.28"/><rect class="cls-1" x="61.38" y="78.07" width="12.28" height="12.28"/><rect class="cls-4" x="49.11" y="90.35" width="12.28" height="12.28"/><rect class="cls-2" x="61.38" y="90.35" width="12.28" height="12.28"/><rect class="cls-1" x="49.11" y="101.76" width="12.28" height="12.28"/><rect class="cls-4" x="61.38" y="101.76" width="12.28" height="12.28"/><rect class="cls-1" x="61.38" y="114.03" width="12.28" height="12.28"/><rect class="cls-1" x="73.58" y="11.4" width="12.28" height="12.28"/><rect class="cls-2" x="73.58" y="23.68" width="12.28" height="12.28"/><rect class="cls-1" x="85.85" y="23.68" width="12.28" height="12.28"/><rect class="cls-1" x="73.58" y="35.09" width="12.28" height="12.28"/><rect class="cls-2" x="85.85" y="35.09" width="12.28" height="12.28"/><rect class="cls-1" x="98.13" y="35.09" width="12.28" height="12.28"/><rect class="cls-3" x="73.58" y="47.36" width="12.28" height="12.28"/><rect class="cls-1" x="85.85" y="47.36" width="12.28" height="12.28"/><rect class="cls-1" x="73.58" y="58.77" width="12.28" height="12.28"/><rect class="cls-3" x="85.85" y="58.77" width="12.28" height="12.28"/><rect class="cls-1" x="98.13" y="58.77" width="12.28" height="12.28"/><rect class="cls-1" x="110.4" y="47.36" width="12.28" height="12.28"/><rect class="cls-2" x="110.4" y="58.77" width="12.28" height="12.28"/><rect class="cls-1" x="122.68" y="58.77" width="12.28" height="12.28"/><rect class="cls-3" x="73.58" y="66.67" width="12.28" height="12.28"/><rect class="cls-1" x="85.85" y="66.67" width="12.28" height="12.28"/><rect class="cls-2" x="98.13" y="66.67" width="12.28" height="12.28"/><rect class="cls-1" x="73.58" y="78.07" width="12.28" height="12.28"/><rect class="cls-2" x="85.85" y="78.07" width="12.28" height="12.28"/><rect class="cls-4" x="98.13" y="78.07" width="12.28" height="12.28"/><rect class="cls-2" x="73.58" y="90.35" width="12.28" height="12.28"/><rect class="cls-4" x="85.85" y="90.35" width="12.28" height="12.28"/><rect class="cls-4" x="73.58" y="101.76" width="12.28" height="12.28"/><rect class="cls-1" x="85.85" y="101.76" width="12.28" height="12.28"/><rect class="cls-1" x="73.58" y="114.03" width="12.28" height="12.28"/><rect class="cls-1" x="110.4" y="66.67" width="12.28" height="12.28"/><rect class="cls-1" x="122.68" y="66.67" width="12.28" height="12.28"/><rect class="cls-5" y="47.36" width="12.28" height="12.28"/><rect class="cls-5" x="49.11" width="12.28" height="12.28"/><rect class="cls-5" y="90.35" width="12.28" height="12.28"/><rect class="cls-5" x="85.85" width="12.28" height="12.28"/><rect class="cls-5" x="134.96" y="47.36" width="12.28" height="12.28"/><rect class="cls-5" x="134.96" y="90.35" width="12.28" height="12.28"/><rect class="cls-4" x="24.55" y="35.09" width="12.28" height="12.28"/><rect class="cls-4" x="49.11" y="11.4" width="12.28" height="12.28"/><rect class="cls-4" y="66.67" width="12.28" height="12.28"/><rect class="cls-4" x="12.28" y="78.07" width="12.28" height="12.28"/><rect class="cls-4" x="24.55" y="90.35" width="12.28" height="12.28"/><rect class="cls-4" x="36.83" y="101.76" width="12.28" height="12.28"/><rect class="cls-4" x="61.38" y="125.44" width="12.28" height="12.28"/><rect class="cls-4" x="73.58" width="12.28" height="12.28"/><rect class="cls-4" x="85.85" y="11.4" width="12.28" height="12.28"/><rect class="cls-4" x="110.4" y="35.09" width="12.28" height="12.28"/><rect class="cls-4" x="98.13" y="101.76" width="12.28" height="12.28"/><rect class="cls-4" x="134.96" y="66.67" width="12.28" height="12.28"/><rect class="cls-4" x="122.68" y="78.07" width="12.28" height="12.28"/><rect class="cls-4" x="110.4" y="90.35" width="12.28" height="12.28"/><rect class="cls-6" x="122.68" y="35.09" width="12.28" height="12.28"/><rect class="cls-6" x="24.55" y="23.68" width="12.28" height="12.28"/><rect class="cls-6" x="12.28" y="35.09" width="12.28" height="12.28"/><rect class="cls-6" x="36.83" y="11.4" width="12.28" height="12.28"/><rect class="cls-6" x="12.28" y="101.76" width="12.28" height="12.28"/><rect class="cls-6" x="36.83" y="114.03" width="12.28" height="12.28"/><rect class="cls-6" x="49.11" y="125.44" width="12.28" height="12.28"/><rect class="cls-6" x="98.13" y="11.4" width="12.28" height="12.28"/><rect class="cls-6" x="110.4" y="23.68" width="12.28" height="12.28"/><rect class="cls-6" x="98.13" y="114.03" width="12.28" height="12.28"/><rect class="cls-6" x="85.85" y="125.44" width="12.28" height="12.28"/><rect class="cls-6" x="122.68" y="101.76" width="12.28" height="12.28"/></svg>